<svg width="200" height="200" xmlns="http://www.w3.org/2000/svg">
 <!-- Created with Method Draw - http://github.com/duopixel/Method-Draw/ -->
 <g>
  <title>background</title>
  <rect fill="none" id="canvas_background" height="202" width="202" y="-1" x="-1"/>
  <g display="none" overflow="visible" y="0" x="0" height="100%" width="100%" id="canvasGrid">
   <rect fill="url(#gridpattern)" stroke-width="0" y="0" x="0" height="100%" width="100%"/>
  </g>
 </g>
 <g>
  <title>Layer 1</title>
  <ellipse stroke="#6afaa9" ry="96.45473" rx="96.45473" id="svg_1" cy="100" cx="100" stroke-width="3" fill="#cff4df"/>
  <line stroke="#6afaa9" stroke-linecap="null" stroke-linejoin="null" id="svg_3" y2="195.51593" x2="100" y1="4.48406" x1="100" stroke-width="3" fill="none"/>
  <line stroke="#6afaa9" stroke-linecap="null" stroke-linejoin="null" id="svg_4" y2="195.51593" x2="80" y1="4.48406" x1="80" stroke-width="3" fill="none"/>
  <line stroke="#6afaa9" stroke-linecap="null" stroke-linejoin="null" id="svg_5" y2="195.51593" x2="120" y1="4.48406" x1="120" stroke-width="3" fill="none"/>
  <line stroke="#6afaa9" stroke-linecap="null" stroke-linejoin="null" id="svg_6" y2="186.94451" x2="140" y1="13.87182" x1="140" stroke-width="3" fill="none"/>
  <line stroke="#6afaa9" stroke-linecap="null" stroke-linejoin="null" id="svg_7" y2="187.35266" x2="60" y1="13.0555" x1="60" stroke-width="3" fill="none"/>
  <line stroke="#6afaa9" stroke-linecap="null" stroke-linejoin="null" id="svg_8" y2="175.10776" x2="40" y1="25.30038" x1="40" stroke-width="3" fill="none"/>
  <line stroke="#6afaa9" stroke-linecap="null" stroke-linejoin="null" id="svg_9" y2="154.29145" x2="20" y1="46.93304" x1="20" stroke-width="3" fill="none"/>
  <line stroke="#6afaa9" stroke-linecap="null" stroke-linejoin="null" id="svg_10" y2="175.51593" x2="160" y1="25.30038" x1="160" stroke-width="3" fill="none"/>
  <line stroke="#6afaa9" stroke-linecap="null" stroke-linejoin="null" id="svg_11" y2="154.69961" x2="180" y1="46.11672" x1="180" stroke-width="3" fill="none"/>
  <g transform="rotate(90 100,99.99999237060548) " id="svg_21">
   <line stroke="#6afaa9" stroke-linecap="null" stroke-linejoin="null" id="svg_12" y2="195.51593" x2="100" y1="4.48406" x1="100" stroke-width="3" fill="none"/>
   <line stroke="#6afaa9" stroke-linecap="null" stroke-linejoin="null" id="svg_13" y2="195.51593" x2="80" y1="4.48406" x1="80" stroke-width="3" fill="none"/>
   <line stroke="#6afaa9" stroke-linecap="null" stroke-linejoin="null" id="svg_14" y2="195.51593" x2="120" y1="4.48406" x1="120" stroke-width="3" fill="none"/>
   <line stroke="#6afaa9" stroke-linecap="null" stroke-linejoin="null" id="svg_15" y2="186.94451" x2="140" y1="13.87182" x1="140" stroke-width="3" fill="none"/>
   <line stroke="#6afaa9" stroke-linecap="null" stroke-linejoin="null" id="svg_16" y2="187.35266" x2="60" y1="13.0555" x1="60" stroke-width="3" fill="none"/>
   <line stroke="#6afaa9" stroke-linecap="null" stroke-linejoin="null" id="svg_17" y2="175.10776" x2="40" y1="25.30038" x1="40" stroke-width="3" fill="none"/>
   <line stroke="#6afaa9" stroke-linecap="null" stroke-linejoin="null" id="svg_18" y2="154.29145" x2="20" y1="46.93304" x1="20" stroke-width="3" fill="none"/>
   <line stroke="#6afaa9" stroke-linecap="null" stroke-linejoin="null" id="svg_19" y2="175.51593" x2="160" y1="25.30038" x1="160" stroke-width="3" fill="none"/>
   <line stroke="#6afaa9" stroke-linecap="null" stroke-linejoin="null" id="svg_20" y2="154.69961" x2="180" y1="46.11672" x1="180" stroke-width="3" fill="none"/>
  </g>
  <text stroke="#6afaa9" transform="matrix(6.255365547157308,0,0,6.255365547157308,-1886.0995248565644,-1349.1372635141265) " xml:space="preserve" text-anchor="start" font-family="Oswald, sans-serif" font-size="24" id="svg_22" y="240.24281" x="309.82626" stroke-width="0" fill="#ffc9fa">A</text>
  <text stroke="#6afaa9" transform="matrix(6.255365547157308,0,0,6.255365547157308,-1886.0995248565644,-1349.1372635141265) " xml:space="preserve" text-anchor="start" font-family="Oswald, sans-serif" font-size="24" id="svg_2" y="239.98181" x="309.50001" stroke-width="0" fill="#a9039b">A</text>
 </g>
</svg>