<svg xmlns="https://www.w3.org/2000/svg" style="display:none;">
  <defs>
  	<g id="icon-mail">
      <g><g><polygon points="339.392,258.624 512,367.744 512,144.896"/></g></g><g><g><polygon points="0,144.896 0,367.744 172.608,258.624"/></g></g><g><g><path d="M480,80H32C16.032,80,3.36,91.904,0.96,107.232L256,275.264l255.04-168.032C508.64,91.904,495.968,80,480,80z"/></g></g><g><g>	<path d="M310.08,277.952l-45.28,29.824c-2.688,1.76-5.728,2.624-8.8,2.624c-3.072,0-6.112-0.864-8.8-2.624l-45.28-29.856		L1.024,404.992C3.488,420.192,16.096,432,32,432h448c15.904,0,28.512-11.808,30.976-27.008L310.08,277.952z"/></g></g>
    </g>
	<g id="icon-linkedin">
      	<g><g><rect y="160" width="114.496" height="352"/></g></g>
		<g><g><path d="M426.368,164.128c-1.216-0.384-2.368-0.8-3.648-1.152c-1.536-0.352-3.072-0.64-4.64-0.896		c-6.08-1.216-12.736-2.08-20.544-2.08c-66.752,0-109.088,48.544-123.04,67.296V160H160v352h114.496V320		c0,0,86.528-120.512,123.04-32c0,79.008,0,224,0,224H512V274.464C512,221.28,475.552,176.96,426.368,164.128z"/></g></g>
		<g><g><circle cx="56" cy="56" r="56"/></g></g>
    </g>
	<g id="icon-github">
      	<g>
			<path d="M409.132,114.573c-19.608-33.596-46.205-60.194-79.798-79.8C295.736,15.166,259.057,5.365,219.271,5.365
				c-39.781,0-76.472,9.804-110.063,29.408c-33.596,19.605-60.192,46.204-79.8,79.8C9.803,148.168,0,184.854,0,224.63
				c0,47.78,13.94,90.745,41.827,128.906c27.884,38.164,63.906,64.572,108.063,79.227c5.14,0.954,8.945,0.283,11.419-1.996
				c2.475-2.282,3.711-5.14,3.711-8.562c0-0.571-0.049-5.708-0.144-15.417c-0.098-9.709-0.144-18.179-0.144-25.406l-6.567,1.136
				c-4.187,0.767-9.469,1.092-15.846,1c-6.374-0.089-12.991-0.757-19.842-1.999c-6.854-1.231-13.229-4.086-19.13-8.559
				c-5.898-4.473-10.085-10.328-12.56-17.556l-2.855-6.57c-1.903-4.374-4.899-9.233-8.992-14.559
				c-4.093-5.331-8.232-8.945-12.419-10.848l-1.999-1.431c-1.332-0.951-2.568-2.098-3.711-3.429c-1.142-1.331-1.997-2.663-2.568-3.997
				c-0.572-1.335-0.098-2.43,1.427-3.289c1.525-0.859,4.281-1.276,8.28-1.276l5.708,0.853c3.807,0.763,8.516,3.042,14.133,6.851
				c5.614,3.806,10.229,8.754,13.846,14.842c4.38,7.806,9.657,13.754,15.846,17.847c6.184,4.093,12.419,6.136,18.699,6.136
				c6.28,0,11.704-0.476,16.274-1.423c4.565-0.952,8.848-2.383,12.847-4.285c1.713-12.758,6.377-22.559,13.988-29.41
				c-10.848-1.14-20.601-2.857-29.264-5.14c-8.658-2.286-17.605-5.996-26.835-11.14c-9.235-5.137-16.896-11.516-22.985-19.126
				c-6.09-7.614-11.088-17.61-14.987-29.979c-3.901-12.374-5.852-26.648-5.852-42.826c0-23.035,7.52-42.637,22.557-58.817
				c-7.044-17.318-6.379-36.732,1.997-58.24c5.52-1.715,13.706-0.428,24.554,3.853c10.85,4.283,18.794,7.952,23.84,10.994
				c5.046,3.041,9.089,5.618,12.135,7.708c17.705-4.947,35.976-7.421,54.818-7.421s37.117,2.474,54.823,7.421l10.849-6.849
				c7.419-4.57,16.18-8.758,26.262-12.565c10.088-3.805,17.802-4.853,23.134-3.138c8.562,21.509,9.325,40.922,2.279,58.24
				c15.036,16.18,22.559,35.787,22.559,58.817c0,16.178-1.958,30.497-5.853,42.966c-3.9,12.471-8.941,22.457-15.125,29.979
				c-6.191,7.521-13.901,13.85-23.131,18.986c-9.232,5.14-18.182,8.85-26.84,11.136c-8.662,2.286-18.415,4.004-29.263,5.146
				c9.894,8.562,14.842,22.077,14.842,40.539v60.237c0,3.422,1.19,6.279,3.572,8.562c2.379,2.279,6.136,2.95,11.276,1.995
				c44.163-14.653,80.185-41.062,108.068-79.226c27.88-38.161,41.825-81.126,41.825-128.906
				C438.536,184.851,428.728,148.168,409.132,114.573z"/>
		</g>
    </g>
		<g id="icon-insta">
      <g><g><path d="M352,0H160C71.648,0,0,71.648,0,160v192c0,88.352,71.648,160,160,160h192c88.352,0,160-71.648,160-160V160		C512,71.648,440.352,0,352,0z M464,352c0,61.76-50.24,112-112,112H160c-61.76,0-112-50.24-112-112V160C48,98.24,98.24,48,160,48		h192c61.76,0,112,50.24,112,112V352z"/></g></g>
			<g><g><path d="M256,128c-70.688,0-128,57.312-128,128s57.312,128,128,128s128-57.312,128-128S326.688,128,256,128z M256,336		c-44.096,0-80-35.904-80-80c0-44.128,35.904-80,80-80s80,35.872,80,80C336,300.096,300.096,336,256,336z"/></g></g>
			<g><g><circle cx="393.6" cy="118.4" r="17.056"/></g></g>
    </g>
    <g id="icon-twitter">
      <g><g><path d="M512,97.248c-19.04,8.352-39.328,13.888-60.48,16.576c21.76-12.992,38.368-33.408,46.176-58.016
			c-20.288,12.096-42.688,20.64-66.56,25.408C411.872,60.704,384.416,48,354.464,48c-58.112,0-104.896,47.168-104.896,104.992
			c0,8.32,0.704,16.32,2.432,23.936c-87.264-4.256-164.48-46.08-216.352-109.792c-9.056,15.712-14.368,33.696-14.368,53.056
			c0,36.352,18.72,68.576,46.624,87.232c-16.864-0.32-33.408-5.216-47.424-12.928c0,0.32,0,0.736,0,1.152
			c0,51.008,36.384,93.376,84.096,103.136c-8.544,2.336-17.856,3.456-27.52,3.456c-6.72,0-13.504-0.384-19.872-1.792
			c13.6,41.568,52.192,72.128,98.08,73.12c-35.712,27.936-81.056,44.768-130.144,44.768c-8.608,0-16.864-0.384-25.12-1.44
			C46.496,446.88,101.6,464,161.024,464c193.152,0,298.752-160,298.752-298.688c0-4.64-0.16-9.12-0.384-13.568
			C480.224,136.96,497.728,118.496,512,97.248z"/></g></g>
    </g>

	<g id="icon-college" viewBox="0 0 398.97 398.97">
		<path d="M225.092,276.586c-7.101,4.355-16.195,6.754-25.607,6.754c-9.412,0-18.506-2.398-25.607-6.754L57.946,205.484
				c0,0-10.464-6.414-10.464,8.116c0,16.5,0,66,0,66c0,0.66,0,3.973,0,5c0,37.402,68.053,77.723,152,77.723s152-40.32,152-77.723
				c0-1.027,0-4.34,0-5c0,0,0-52.502,0-70.003c0-11.663-7.439-5.964-7.439-5.964L225.092,276.586z"></path>
		<path d="M392.289,148.927c8.908-5.463,8.908-14.403,0-19.867L215.681,40.745c-8.908-5.463-23.485-5.463-32.393,0L6.681,129.06
				c-8.908,5.463-8.908,14.403,0,19.867l176.607,108.315c8.908,5.463,23.485,5.463,32.393,0"></path>
		<path d="M384.985,309.475c0-29.906,0-119.625,0-119.625s0.083-5.666-3.279-3.795c-2.697,1.501-9.308,5.186-11.637,7.212
				c-2.689,2.337-2.083,7.583-2.083,7.583s0,81.469,0,108.625c0,1.542-1.325,2.278-1.957,2.65
				c-6.105,3.589-10.21,10.214-10.21,17.809c0,11.414,9.252,20.667,20.667,20.667c11.414,0,20.666-9.253,20.666-20.667
				c0-7.624-4.135-14.27-10.279-17.85C386.262,311.728,384.985,311.016,384.985,309.475z"></path>
	</g>

	<g id="icon-world" viewBox="0 0 489 489">
		<path xmlns="http://www.w3.org/2000/svg" d="m244.5,0c-135.2,0-244.5,109.3-244.5,244.5s109.3,244.5 244.5,244.5 244.5-109.3 244.5-244.5-109.3-244.5-244.5-244.5zm-73.8,33.3c-12.9,18.1-23.9,37.2-33.1,57.2h-55.5c24.2-25.6 54.5-45.4 88.6-57.2zm-106.1,78h64.2c-15.1,38.9-23.4,80.4-24.6,122.8h-83.1c2.1-45.9 17.9-88.2 43.5-122.8zm0,266.4c-25.6-34.6-41.4-76.9-43.5-122.8h83.1c1.2,42.4 9.8,83.9 25,122.8h-64.6zm17.5,20.8h56c9.3,20 20.3,39.3 33,57.4-34.2-11.8-64.7-31.7-89-57.4zm152,69.5c-10.4-0.5-20.7-1.7-30.7-3.5-16.6-20.5-30.8-42.6-42.3-65.9h73v69.4zm-0-90.3h-82.5c-16.1-38.8-25.3-80.3-26.6-122.8h109.1v122.8zm0-143.6h-109.1c1.3-42.4 10.4-84 26.4-122.8h82.7v122.8zm.1-143.6h-0.1-73.2c11.6-23.5 25.8-45.6 42.5-65.9 10-1.9 20.3-3 30.8-3.5v69.4zm190.2,20.8c25.6,34.6 41.5,76.8 43.5,122.8h-83.1c-1.2-42.4-9.8-83.9-25-122.8h64.6zm-17.5-20.8h-56c-9.3-20-20.3-39.3-33.1-57.4 34.3,11.8 64.8,31.7 89.1,57.4zm-152-69.4c10.4,0.5 20.7,1.7 30.7,3.5 16.6,20.5 30.8,42.6 42.3,65.9h-73v-69.4zm-0,90.2h82.5c16.1,38.7 25.3,80.3 26.6,122.8h-109.1v-122.8zm0,143.6h109.1c-1.3,42.4-10.4,84-26.4,122.8h-82.7l-0-122.8zm-.1,213v-69.4h0.1 73.2c-11.6,23.5-25.8,45.6-42.5,65.9-10,1.9-20.3,3-30.8,3.5zm63-12c12.7-18.1 23.7-37.4 32.9-57.4h56.3c-24.4,25.7-54.9,45.6-89.2,57.4zm41.7-78.2c15-38.9 23.5-80.4 25.2-122.8h83.3c-2.1,45.9-17.9,88.2-43.5,122.8h-65z"/>
	</g>

	<g id="icon-donut" viewBox="0 0 336.242 336.242">
		<path style="fill:#63eca9;" d="M227.8,138.588c0-8.026-23.803-20.161-59.68-20.161c-35.876,0-59.678,12.135-59.678,20.161   c0,2.197,2.169,5.558,7.797,9.009c13.613-5.934,32.369-9.325,51.881-9.325c19.514,0,38.271,3.39,51.881,9.326   C225.631,144.146,227.8,140.785,227.8,138.588z"/>
		<path style="fill:#63eca9;" d="M168.122,277.77c41.646,0,80.683-8.907,109.92-25.082c22.299-12.336,36.561-27.61,41.353-43.93   c-2.286,2.424-5.509,4.415-5.711,4.536c-21.137,12.681-36.392,8.323-49.852,4.475c-9.837-2.81-18.334-5.241-29.385-1.44   c-0.217,0.075-0.438,0.139-0.661,0.194c-11.338,2.768-16.714,9.274-22.94,16.806c-8.509,10.294-18.152,21.963-42.422,22.979   c-0.106,0.005-0.211,0.007-0.315,0.007c-0.105,0-0.21-0.002-0.315-0.007c-24.271-1.02-33.914-12.688-42.422-22.983   c-6.225-7.534-11.602-14.039-22.941-16.808c-0.223-0.055-0.444-0.12-0.66-0.194c-11.053-3.798-19.546-1.372-29.381,1.439   c-13.456,3.846-28.711,8.203-49.846-4.476c-0.202-0.121-3.577-2.251-5.147-4.03c2.515,8.54,7.677,16.805,15.467,24.685   C59.585,260.975,111.414,277.77,168.122,277.77z"/>
		<g>
			<path style="fill:#ffc9fa;" d="M299.509,98.464c0.638,0.565,1.26,1.134,1.871,1.706C300.768,99.599,300.148,99.029,299.509,98.464    z"/>
			<path style="fill:#ffc9fa;" d="M295.786,95.328c0.66,0.529,1.299,1.064,1.935,1.6C297.085,96.392,296.447,95.857,295.786,95.328z"/>
			<path style="fill:#ffc9fa;" d="M291.778,92.265c0.67,0.488,1.314,0.984,1.963,1.478C293.092,93.249,292.449,92.753,291.778,92.265    z"/>
			<path style="fill:#ffc9fa;" d="M306.095,104.942c0.563,0.618,1.12,1.237,1.652,1.862    C307.215,106.18,306.658,105.561,306.095,104.942z"/>
			<path style="fill:#ffc9fa;" d="M304.72,103.463c-0.578-0.603-1.172-1.202-1.779-1.797    C303.548,102.262,304.143,102.86,304.72,103.463z"/>
			<path style="fill:#ffc9fa;" d="M150.436,69.195c0.151-0.066,0.309-0.114,0.463-0.17C150.744,69.082,150.588,69.128,150.436,69.195    z"/>
			<path style="fill:#ffc9fa;" d="M152.015,68.709c0.184-0.036,0.369-0.067,0.556-0.089C152.383,68.642,152.2,68.673,152.015,68.709z    "/>
			<path style="fill: #ffc9fa;" d="M308.178,107.209c-5.694-4.835-12.427-9.405-20.06-13.627    C258.881,77.407,219.819,68.5,178.172,68.5c-7.177,0-14.286,0.271-21.272,0.791l-0.946-0.329l23.144,8.114    c3.919,1.375,5.982,5.666,4.608,9.586c-1.086,3.097-3.993,5.034-7.098,5.034c-0.826,0-1.665-0.137-2.489-0.425l-23.147-8.114    c-3.919-1.375-5.983-5.666-4.609-9.586c0.536-1.53,1.524-2.764,2.753-3.634c-0.029,0.021-0.065,0.032-0.094,0.053    c-30.504,3.155-58.5,11.257-80.795,23.59c-8.319,4.602-15.511,9.615-21.521,14.937l23.845-0.918    c4.174-0.141,7.646,3.075,7.805,7.225c0.161,4.151-3.075,7.645-7.225,7.805l-24.51,0.943c-0.099,0.004-0.197,0.006-0.295,0.006    c-4.02,0-7.354-3.18-7.51-7.231c0.001,0.034,0.007,0.067,0.009,0.102c-8.999,10.417-13.75,21.743-13.756,33.348l0.34,33.767    c0.54,5.866,1.475,11.41,5.273,17.057c15.306,9.034,25.146,6.229,37.576,2.677c10.648-3.042,22.707-6.487,38.075-1.312    c15.961,4.001,23.753,13.431,30.633,21.756c7.71,9.329,13.809,16.71,31.144,17.523c17.333-0.811,23.432-8.191,31.143-17.52    c6.88-8.325,14.671-17.753,30.632-21.753c15.37-5.175,27.431-1.73,38.08,1.315c12.455,3.559,22.411,6.377,37.777-2.731    c14.011-10.421,15.656-19.765,15.656-31.527v-29.254C321.399,128.47,316.752,117.417,308.178,107.209z M68.008,158.491    l-21.794,11.253c-1.103,0.57-2.282,0.84-3.445,0.84c-2.723,0-5.353-1.485-6.688-4.073c-1.906-3.689-0.458-8.226,3.233-10.132    l21.793-11.253c3.686-1.906,8.226-0.46,10.132,3.233C73.146,152.049,71.699,156.586,68.008,158.491z M211.824,85.436l23.622-6.613    c4-1.118,8.149,1.216,9.27,5.214c1.119,4-1.215,8.15-5.215,9.271l-23.621,6.613c-0.679,0.189-1.361,0.28-2.032,0.28    c-3.288,0-6.308-2.173-7.239-5.495C205.49,90.707,207.824,86.557,211.824,85.436z M86.932,101.08    c-2.107-3.579-0.915-8.19,2.665-10.297l21.135-12.445c3.581-2.106,8.189-0.913,10.297,2.665c2.107,3.579,0.915,8.19-2.665,10.297    l-21.135,12.445c-1.199,0.705-2.513,1.041-3.809,1.041C90.843,104.785,88.335,103.461,86.932,101.08z M128.392,187.728    c-1.086,3.096-3.993,5.034-7.098,5.034c-0.826,0-1.665-0.137-2.488-0.425l-23.147-8.115c-3.919-1.375-5.983-5.666-4.609-9.586    c1.375-3.92,5.663-5.981,9.586-4.609l23.147,8.114C127.701,179.517,129.765,183.808,128.392,187.728z M182.167,199.744    l-23.183,8.005c-0.813,0.281-1.641,0.414-2.455,0.414c-3.119,0-6.034-1.955-7.108-5.068c-1.356-3.926,0.728-8.208,4.653-9.563    l23.183-8.006c3.927-1.358,8.209,0.728,9.564,4.653C188.177,194.106,186.093,198.388,182.167,199.744z M168.12,173.79    c-18.909,0-36.802-3.081-50.381-8.674C102.044,158.65,93.4,149.23,93.4,138.588c0-10.641,8.644-20.062,24.338-26.527    c13.58-5.595,31.472-8.675,50.381-8.675c18.91,0,36.803,3.081,50.383,8.675c15.695,6.465,24.338,15.886,24.338,26.527    c0,10.641-8.644,20.062-24.338,26.528C204.924,170.71,187.031,173.79,168.12,173.79z M242.788,189.57    c-0.09,0-0.18-0.002-0.27-0.005l-24.513-0.865c-4.151-0.146-7.398-3.63-7.251-7.781c0.147-4.151,3.656-7.411,7.781-7.25    l24.513,0.865c4.151,0.146,7.398,3.63,7.251,7.781C250.156,186.375,246.819,189.57,242.788,189.57z M251.076,111.256    c0.911-4.053,4.937-6.596,8.985-5.692l23.933,5.37c4.053,0.91,6.601,4.933,5.693,8.985c-0.785,3.499-3.891,5.877-7.332,5.877    c-0.545,0-1.099-0.06-1.653-0.184l-23.933-5.37C252.716,119.331,250.168,115.308,251.076,111.256z M292.212,159.143l-23.63,6.576    c-0.675,0.187-1.353,0.277-2.02,0.277c-3.293,0-6.315-2.179-7.242-5.507c-1.113-4.001,1.228-8.149,5.229-9.262l23.629-6.576    c4.006-1.115,8.149,1.227,9.262,5.229C298.555,153.882,296.214,158.029,292.212,159.143z"/>
			<path style="fill:#ffc9fa;" d="M282.908,86.375c0.557,0.337,1.083,0.684,1.628,1.026C283.991,87.06,283.465,86.712,282.908,86.375    z"/>
			<path style="fill:#ffc9fa;" d="M287.486,89.28c0.65,0.431,1.27,0.872,1.902,1.308C288.756,90.152,288.137,89.711,287.486,89.28z"/>
			<path style="fill:#ffc9fa;" d="M153.739,68.579c0.174,0.006,0.347,0,0.521,0.019C154.085,68.579,153.914,68.585,153.739,68.579z"/>
		</g>
		<path style="fill:#ab529b;" d="M242.842,138.588c0-10.641-8.644-20.062-24.338-26.527c-13.581-5.595-31.474-8.675-50.383-8.675   s-36.802,3.081-50.381,8.675c-15.695,6.465-24.339,15.887-24.339,26.527c0,10.642,8.644,20.062,24.339,26.528   c13.58,5.594,31.472,8.674,50.381,8.674c18.911,0,36.804-3.081,50.383-8.674C234.198,158.65,242.842,149.23,242.842,138.588z    M220.001,147.598c-13.611-5.935-32.368-9.326-51.881-9.326c-19.513,0-38.269,3.39-51.881,9.325   c-5.628-3.451-7.797-6.812-7.797-9.009c0-8.026,23.802-20.161,59.678-20.161c35.877,0,59.68,12.135,59.68,20.161   C227.8,140.785,225.631,144.146,220.001,147.598z M139.792,156.036c8.659-1.767,18.34-2.722,28.328-2.722   c9.989,0,19.67,0.956,28.328,2.723c-8.648,1.77-18.287,2.711-28.328,2.711C158.078,158.749,148.44,157.807,139.792,156.036z"/>
		<path style="fill:#ab529b;" d="M97.229,103.745l21.135-12.445c3.579-2.107,4.772-6.718,2.665-10.297   c-2.107-3.577-6.716-4.77-10.297-2.665L89.597,90.783c-3.579,2.107-4.772,6.718-2.665,10.297c1.402,2.38,3.911,3.705,6.488,3.705   C94.717,104.786,96.031,104.45,97.229,103.745z"/>
		<path style="fill:#ab529b;" d="M177.257,185.527l-23.183,8.006c-3.926,1.355-6.01,5.638-4.653,9.563   c1.074,3.113,3.99,5.068,7.109,5.068c0.814,0,1.642-0.133,2.455-0.414l23.183-8.006c3.926-1.355,6.01-5.638,4.653-9.564   C185.466,186.256,181.183,184.169,177.257,185.527z"/>
		<path style="fill:#ab529b;" d="M150.972,83.158l23.147,8.114c0.823,0.288,1.663,0.425,2.488,0.425c3.105,0,6.012-1.938,7.098-5.034   c1.374-3.92-0.69-8.211-4.609-9.586l-23.147-8.114c-3.922-1.373-8.212,0.689-9.586,4.609   C144.989,77.492,147.053,81.783,150.972,83.158z"/>
		<path style="fill:#ab529b;" d="M123.782,178.142l-23.147-8.114c-3.923-1.372-8.211,0.689-9.586,4.609   c-1.374,3.92,0.69,8.211,4.609,9.586l23.147,8.114c0.824,0.288,1.663,0.425,2.488,0.425c3.105,0,6.012-1.938,7.098-5.034   C129.765,183.809,127.701,179.517,123.782,178.142z"/>
		<path style="fill:#ab529b;" d="M288.18,144.651l-23.63,6.576c-4.001,1.113-6.343,5.261-5.229,9.262   c0.927,3.327,3.949,5.506,7.242,5.506c0.667,0,1.345-0.09,2.02-0.277l23.63-6.576c4.001-1.113,6.343-5.26,5.229-9.262   C296.328,145.879,292.186,143.537,288.18,144.651z"/>
		<path style="fill:#ab529b;" d="M61.108,145.126l-21.793,11.253c-3.691,1.906-5.138,6.442-3.233,10.132   c1.336,2.588,3.965,4.073,6.688,4.073c1.162,0,2.341-0.27,3.444-0.84l21.794-11.253c3.691-1.906,5.138-6.442,3.233-10.132   C69.334,144.666,64.794,143.22,61.108,145.126z"/>
		<path style="fill:#ab529b;" d="M70.552,107.6l-24.51,0.944c-4.15,0.16-7.386,3.654-7.225,7.805c0.156,4.051,3.49,7.231,7.51,7.231   c0.098,0,0.196-0.002,0.295-0.006l24.51-0.944c4.15-0.16,7.386-3.654,7.225-7.805C78.198,110.675,74.726,107.459,70.552,107.6z"/>
		<path style="fill:#ab529b;" d="M282.355,125.795c3.441,0,6.546-2.378,7.332-5.877c0.909-4.052-1.639-8.075-5.693-8.985   l-23.933-5.37c-4.048-0.904-8.074,1.639-8.985,5.692c-0.909,4.052,1.639,8.075,5.692,8.985l23.933,5.37   C281.256,125.735,281.81,125.795,282.355,125.795z"/>
		<path style="fill:#ab529b;" d="M243.048,174.533l-24.513-0.866c-4.125-0.161-7.634,3.099-7.781,7.251   c-0.147,4.151,3.099,7.635,7.25,7.781l24.513,0.866c0.09,0.003,0.18,0.005,0.27,0.005c4.031,0,7.368-3.194,7.511-7.256   C250.446,178.163,247.2,174.679,243.048,174.533z"/>
		<path style="fill:#ab529b;" d="M213.848,100.202c0.671,0,1.353-0.091,2.032-0.28l23.621-6.613c3.999-1.12,6.334-5.27,5.215-9.271   c-1.12-3.998-5.27-6.332-9.27-5.215l-23.622,6.613c-3.999,1.12-6.334,5.27-5.215,9.271   C207.539,98.029,210.559,100.202,213.848,100.202z"/>
		<path style="fill:#ab529b;" d="M285.323,70.392c-31.43-17.386-73.053-26.961-117.203-26.961S82.346,53.006,50.918,70.392   C18.083,88.556,0,113.203,0,139.794c0,0.012,0.002,0.023,0.002,0.033c0,0.014-0.002,0.027-0.002,0.042l0.571,56.575   c-0.172,16.98,7.294,33.602,21.596,48.071c29.446,29.789,85.372,48.295,145.955,48.295c44.15,0,85.773-9.575,117.202-26.961   c32.835-18.164,50.918-42.812,50.918-69.402v-56.653C336.242,113.203,318.159,88.556,285.323,70.392z M321.2,169.049   c-0.809,11.762-1.546,21.106-15.557,31.527c-15.367,9.108-25.223,6.29-37.678,2.731c-10.648-3.045-22.71-6.49-38.08-1.314   c-15.961,3.999-23.752,13.428-30.632,21.752c-7.711,9.33-13.81,16.709-31.143,17.52c-17.335-0.813-23.434-8.194-31.144-17.523   c-6.88-8.325-14.672-17.754-30.633-21.755c-15.368-5.176-27.426-1.73-38.075,1.312c-12.456,3.56-22.31,6.373-37.672-2.731   c-12.526-9.32-14.353-17.773-15.204-27.031l-0.34-33.767c0.011-20.862,15.336-40.828,43.157-56.218   C87.436,67.38,126.474,58.472,168.12,58.472c41.646,0,80.684,8.907,109.921,25.082c27.832,15.395,43.159,35.369,43.159,56.24   V169.049z M22.545,213.286c21.135,12.68,36.39,8.322,49.846,4.476c9.835-2.811,18.328-5.237,29.381-1.439   c0.216,0.074,0.437,0.139,0.66,0.194c11.339,2.769,16.716,9.274,22.941,16.808c8.508,10.295,18.151,21.964,42.422,22.983   c0.105,0.005,0.21,0.007,0.315,0.007c0.105,0,0.21-0.002,0.315-0.007c24.269-1.017,33.913-12.686,42.422-22.979   c6.226-7.533,11.603-14.038,22.94-16.806c0.223-0.055,0.444-0.119,0.661-0.194c11.051-3.801,19.548-1.37,29.385,1.44   c13.46,3.848,28.715,8.205,49.852-4.475c0.202-0.121,3.426-2.112,5.711-4.536c-4.793,16.319-19.055,31.594-41.353,43.93   c-29.237,16.175-68.274,25.082-109.92,25.082c-56.708,0-108.537-16.794-135.258-43.828c-7.789-7.88-12.952-16.145-15.467-24.685   C18.967,211.035,22.343,213.165,22.545,213.286z"/>
	</g>

	<g id="icon-music" viewBox="0 -2 487.997 487">
		<path d="m466.140625 124.367188c.070313 5.9375-5.671875 10.828124-12.8125 10.910156-7.136719.078125-12.988281-4.671875-13.058594-10.609375-.070312-5.941407 5.660157-10.820313 12.808594-10.910157 7.152344-.089843 12.992187 4.667969 13.0625 10.609376zm0 0" fill="#6fe3ff"/>
		<path d="m465.449219 65.257812.25 21.269532h-.007813l-54.242187 14.058594-.25-21.28125zm0 0" fill="#6fe3ff"/>
		<path d="m412.011719 148.214844c.066406 5.941406-5.671875 10.820312-12.8125 10.910156s-12.988281-4.667969-13.058594-10.609375c-.070313-5.9375 5.660156-10.828125 12.808594-10.910156 7.152343-.078125 12.992187 4.660156 13.0625 10.609375zm0 0" fill="#6fe3ff"/>
		<path d="m370.199219 149.777344v307.398437c0 11.046875-8.953125 20-20 20h-212.398438c-11.046875 0-20-8.953125-20-20v-307.398437c.003907-11.046875 8.957031-19.996094 20-20h212.398438c11.042969.003906 19.996093 8.953125 20 20zm-50.960938 153.699218c-.003906-41.554687-33.691406-75.234374-75.246093-75.230468-41.550782.003906-75.234376 33.691406-75.230469 75.242187 0 41.554688 33.6875 75.238281 75.238281 75.238281 41.558594 0 75.246094-33.691406 75.238281-75.25zm0 0" fill="#ffc9fa"/>
		<path d="m333.851562 65.605469c.070313 5.941406-5.671874 10.832031-12.8125 10.910156-7.140624.082031-12.988281-4.660156-13.058593-10.597656-.070313-5.941407 5.667969-10.832031 12.808593-10.910157 7.140626-.082031 12.992188 4.660157 13.0625 10.597657zm0 0" fill="#6fe3ff"/>
		<path d="m333.160156 6.496094.25 21.269531-54.238281 14.0625-.25-21.28125zm0 0" fill="#63eca9"/>
		<path d="m244 228.238281c41.558594-.003906 75.25 33.683594 75.25 75.242188 0 41.558593-33.6875 75.246093-75.246094 75.246093s-75.246094-33.691406-75.242187-75.25c-.003907-41.554687 33.683593-75.242187 75.238281-75.238281zm33.21875 75.238281c-.003906-18.347656-14.878906-33.214843-33.226562-33.210937-18.34375.003906-33.214844 14.878906-33.210938 33.222656 0 18.347657 14.875 33.21875 33.21875 33.21875 18.351562 0 33.226562-14.878906 33.21875-33.230469zm0 0" fill="#6afaa9"/>
		<path d="m279.71875 89.457031c.070312 5.9375-5.660156 10.828125-12.808594 10.910157-7.148437.078124-12.988281-4.671876-13.058594-10.609376-.070312-5.941406 5.667969-10.820312 12.808594-10.910156s12.988282 4.667969 13.058594 10.609375zm0 0" fill="#6fe3ff"/>
		<path d="m244 270.257812c18.351562-.003906 33.230469 14.871094 33.230469 33.222657 0 18.351562-14.875 33.226562-33.226563 33.226562-18.351562 0-33.226562-14.878906-33.222656-33.230469-.003906-18.347656 14.871094-33.222656 33.21875-33.21875zm0 0" fill="#6fe3ff"/>
		<g fill="#ab529b"><path d="m137.800781 483.175781h212.398438c14.355469-.015625 25.984375-11.648437 26-26v-307.398437c-.015625-14.355469-11.644531-25.984375-26-26h-212.398438c-14.355469.015625-25.984375 11.644531-26 26v307.398437c.015625 14.351563 11.644531 25.984375 26 26zm-14-333.398437c.007813-7.730469 6.269531-13.992188 14-14h212.398438c7.730469.007812 13.992187 6.269531 14 14v307.398437c-.007813 7.730469-6.269531 13.992188-14 14h-212.398438c-7.730469-.007812-13.992187-6.269531-14-14zm0 0"/><path d="m244 384.726562c44.871094.003907 81.246094-36.371093 81.25-81.238281.003906-44.871093-36.371094-81.25-81.238281-81.25-44.871094-.003906-81.25 36.367188-81.25 81.238281.046875 44.847657 36.390625 81.195313 81.238281 81.25zm0-150.488281c38.246094-.003906 69.25 30.996094 69.25 69.242188 0 38.242187-31.003906 69.246093-69.246094 69.246093-38.246094 0-69.246094-31.007812-69.242187-69.25.042969-38.222656 31.015625-69.195312 69.238281-69.238281zm0 0"/><path d="m244 342.707031c21.664062.003907 39.226562-17.558593 39.230469-39.21875.003906-21.664062-17.558594-39.230469-39.21875-39.230469-21.664063-.003906-39.230469 17.554688-39.230469 39.21875.019531 21.652344 17.566406 39.203126 39.21875 39.230469zm0-66.449219c15.039062-.003906 27.230469 12.183594 27.230469 27.222657 0 15.035156-12.191407 27.226562-27.226563 27.226562-15.039062 0-27.226562-12.191406-27.222656-27.230469.015625-15.027343 12.191406-27.203124 27.21875-27.21875zm0 0"/><path d="m6 300.976562c4.167969 0 6.1875 2.199219 9.683594 6.40625 3.714844 4.476563 8.800781 10.601563 18.566406 10.601563 10 0 15.152344-6.207031 18.914062-10.742187 3.515626-4.234376 5.382813-6.269532 9.335938-6.269532 4 0 6.015625 2.183594 9.523438 6.363282 3.773437 4.492187 8.9375 10.648437 18.726562 10.648437 3.3125 0 6-2.6875 6-6s-2.6875-6-6-6c-4.007812 0-6.023438-2.183594-9.535156-6.363281-3.769532-4.492188-8.933594-10.648438-18.714844-10.648438-9.761719 0-14.851562 6.128906-18.566406 10.601563-3.5 4.210937-5.515625 6.410156-9.683594 6.410156-3.953125 0-5.820312-2.035156-9.335938-6.269531-3.761718-4.53125-8.914062-10.738282-18.914062-10.738282-3.3125 0-6 2.6875-6 6s2.6875 6 6 6zm0 0"/><path d="m6 250.976562c4.167969 0 6.1875 2.199219 9.683594 6.40625 3.714844 4.476563 8.800781 10.601563 18.566406 10.601563 10 0 15.152344-6.207031 18.914062-10.742187 3.515626-4.234376 5.382813-6.269532 9.335938-6.269532 4 0 6.015625 2.183594 9.523438 6.363282 3.773437 4.492187 8.9375 10.648437 18.726562 10.648437 3.3125 0 6-2.6875 6-6s-2.6875-6-6-6c-4.007812 0-6.023438-2.183594-9.535156-6.363281-3.769532-4.492188-8.933594-10.648438-18.714844-10.648438-9.761719 0-14.851562 6.128906-18.566406 10.601563-3.5 4.210937-5.515625 6.410156-9.683594 6.410156-3.953125 0-5.820312-2.035156-9.335938-6.269531-3.761718-4.53125-8.914062-10.738282-18.914062-10.738282-3.3125 0-6 2.6875-6 6s2.6875 6 6 6zm0 0"/><path d="m53.164062 357.246094c3.515626-4.234375 5.382813-6.269532 9.335938-6.269532 4 0 6.015625 2.179688 9.523438 6.359376 3.773437 4.496093 8.9375 10.652343 18.726562 10.652343 3.3125 0 6-2.6875 6-6 0-3.316406-2.6875-6-6-6-4.007812 0-6.023438-2.183593-9.535156-6.367187-3.769532-4.492188-8.933594-10.644532-18.714844-10.644532-9.761719 0-14.851562 6.128907-18.566406 10.601563-3.5 4.210937-5.515625 6.40625-9.683594 6.40625-3.953125 0-5.820312-2.035156-9.335938-6.269531-3.761718-4.53125-8.914062-10.738282-18.914062-10.738282-3.3125 0-6 2.6875-6 6s2.6875 6 6 6c4.167969 0 6.1875 2.199219 9.683594 6.40625 3.714844 4.476563 8.800781 10.601563 18.566406 10.601563 9.996094.003906 15.148438-6.207031 18.914062-10.738281zm0 0"/><path d="m482 288.976562c-10 0-15.152344 6.207032-18.914062 10.742188-3.515626 4.234375-5.382813 6.269531-9.335938 6.269531-4.160156 0-6.179688-2.203125-9.671875-6.402343-3.71875-4.476563-8.808594-10.605469-18.578125-10.605469s-14.945312 6.152343-18.714844 10.644531c-3.511718 4.183594-5.527344 6.363281-9.535156 6.363281-3.3125 0-6 2.6875-6 6 0 3.316407 2.6875 6 6 6 9.789062 0 14.953125-6.15625 18.726562-10.648437 3.507813-4.179688 5.523438-6.359375 9.523438-6.359375 3.960938 0 5.828125 2.035156 9.347656 6.273437 3.761719 4.53125 8.914063 10.734375 18.898438 10.734375 9.765625 0 14.851562-6.125 18.566406-10.597656 3.5-4.210937 5.515625-6.410156 9.683594-6.410156 3.316406 0 6-2.683594 6-6 0-3.3125-2.683594-6-6-6zm0 0"/><path d="m482 238.976562c-10 0-15.152344 6.207032-18.914062 10.742188-3.515626 4.234375-5.382813 6.269531-9.335938 6.269531-4.160156 0-6.179688-2.203125-9.671875-6.402343-3.71875-4.476563-8.808594-10.605469-18.578125-10.605469s-14.945312 6.152343-18.714844 10.644531c-3.511718 4.183594-5.527344 6.363281-9.535156 6.363281-3.3125 0-6 2.6875-6 6 0 3.316407 2.6875 6 6 6 9.789062 0 14.953125-6.15625 18.726562-10.648437 3.507813-4.179688 5.523438-6.359375 9.523438-6.359375 3.960938 0 5.828125 2.035156 9.347656 6.273437 3.761719 4.53125 8.914063 10.734375 18.898438 10.734375 9.765625 0 14.851562-6.125 18.566406-10.597656 3.5-4.210937 5.515625-6.410156 9.683594-6.410156 3.316406 0 6-2.683594 6-6 0-3.3125-2.683594-6-6-6zm0 0"/><path d="m482 338.976562c-10 0-15.152344 6.207032-18.914062 10.742188-3.515626 4.234375-5.382813 6.269531-9.335938 6.269531-4.160156 0-6.179688-2.203125-9.671875-6.402343-3.71875-4.476563-8.808594-10.605469-18.578125-10.605469s-14.945312 6.152343-18.714844 10.644531c-3.511718 4.183594-5.527344 6.363281-9.535156 6.363281-3.3125 0-6 2.6875-6 6 0 3.316407 2.6875 6 6 6 9.789062 0 14.953125-6.15625 18.726562-10.648437 3.507813-4.179688 5.523438-6.359375 9.523438-6.359375 3.960938 0 5.828125 2.035156 9.347656 6.273437 3.761719 4.53125 8.914063 10.734375 18.898438 10.734375 9.765625 0 14.851562-6.125 18.566406-10.597656 3.5-4.210937 5.515625-6.410156 9.683594-6.410156 3.316406 0 6-2.683594 6-6 0-3.3125-2.683594-6-6-6zm0 0"/><path d="m399.03125 165.128906h.242188c10.191406-.128906 18.417968-7.394531 18.707031-16.328125.019531-.214843.03125-.433593.03125-.648437l-.5-42.933594 42.28125-10.960938.171875 14.605469c-2.160156-.730469-4.421875-1.101562-6.703125-1.105469-.082031 0-.171875.007813-.25 0-10.441407.132813-18.84375 7.75-18.734375 16.984376.109375 9.164062 8.554687 16.539062 18.882812 16.539062h.242188c4.726562-.007812 9.300781-1.667969 12.933594-4.691406 3.480468-2.886719 5.578124-7.109375 5.777343-11.625.023438-.222656.035157-.441406.03125-.664063l-.6875-59.109375c-.023437-1.84375-.890625-3.574218-2.355469-4.695312-1.464843-1.121094-3.359374-1.503906-5.144531-1.042969l-54.257812 14.046875c-2.671875.6875-4.53125 3.117188-4.5 5.878906l.628906 53.332032c-2.238281-.753907-4.585937-1.125-6.945313-1.101563-4.726562.003906-9.304687 1.664063-12.9375 4.6875-3.667968 3.027344-5.796874 7.535156-5.804687 12.289063.109375 9.167968 8.558594 16.542968 18.890625 16.542968zm59.515625-37.675781c-1.5 1.195313-3.367187 1.835937-5.285156 1.824219-3.691407.039062-6.960938-2.148438-6.992188-4.679688-.027343-2.535156 3.1875-4.796875 6.882813-4.84375h.101562c3.652344 0 6.859375 2.171875 6.890625 4.683594-.070312 1.1875-.652343 2.289062-1.597656 3.015625zm.992187-54.46875.101563 8.910156-42.28125 10.960938-.105469-8.917969zm-65.808593 72.445313c1.5-1.195313 3.367187-1.839844 5.289062-1.824219h.097657c3.652343 0 6.859374 2.171875 6.890624 4.683593.027344 2.53125-3.1875 4.792969-6.878906 4.839844-3.71875.050782-6.964844-2.148437-6.992187-4.679687.066406-1.191407.648437-2.292969 1.59375-3.019531zm0 0"/><path d="m320.722656 49.007812c-4.722656.007813-9.296875 1.664063-12.929687 4.683594-3.726563 2.984375-5.867188 7.519532-5.8125 12.292969.054687 4.773437 2.304687 9.253906 6.097656 12.152344 3.625 2.875 8.125 4.421875 12.753906 4.382812h.273438c4.726562-.007812 9.300781-1.667969 12.933593-4.691406 3.480469-2.886719 5.578126-7.109375 5.78125-11.625.019532-.222656.03125-.441406.03125-.664063l-.691406-59.109374c-.023437-1.84375-.890625-3.578126-2.355468-4.699219-1.464844-1.117188-3.363282-1.503907-5.148438-1.039063l-54.242188 14.046875c-2.671874.6875-4.53125 3.113281-4.5 5.875l.246094 21.199219v.039062l.371094 32.101563c-2.15625-.730469-4.417969-1.105469-6.699219-1.105469-.082031 0-.179687.007813-.25 0-10.4375.128906-18.84375 7.746094-18.734375 16.980469.109375 9.164063 8.554688 16.539063 18.882813 16.539063h.246093c4.726563-.003907 9.300782-1.664063 12.933594-4.691407 3.480469-2.886719 5.578125-7.109375 5.777344-11.625.019531-.21875.03125-.441406.03125-.660156l-.5-42.929687 42.28125-10.964844.167969 14.585937c-2.238281-.742187-4.585938-1.105469-6.945313-1.074219zm5.535156 19.683594c-3.121093 2.386719-7.4375 2.4375-10.617187.128906-1.019531-.648437-1.644531-1.765624-1.660156-2.976562s.582031-2.34375 1.589843-3.015625c1.5-1.191406 3.367188-1.835937 5.285157-1.824219h.128906c1.875-.03125 3.707031.566406 5.199219 1.703125 1.023437.644531 1.648437 1.765625 1.664062 2.972657.011719 1.210937-.585937 2.34375-1.59375 3.015624zm-54.125 23.851563c-1.503906 1.195312-3.371093 1.839843-5.289062 1.824219h-.101562c-3.652344 0-6.859376-2.171876-6.886719-4.683594-.03125-2.527344 3.183593-4.789063 6.878906-4.839844h.101563c3.648437 0 6.859374 2.171875 6.886718 4.683594-.066406 1.1875-.648437 2.289062-1.589844 3.015625zm12.945313-58.445313-.101563-8.921875 42.277344-10.949219.101563 8.910157zm0 0"/></g>
	</g>

	<g id="icon-excel" viewBox="0 0 511.999 511.999" style="fill:#ab529b">		
		<path style="fill:#ffc9fa;" d="M455.242,28.098H56.758c-26.703,0-48.348,21.645-48.348,48.347v359.107  c0,26.702,21.646,48.347,48.348,48.347h398.485c26.702,0,48.348-21.646,48.348-48.347V76.446  C503.591,49.744,481.944,28.098,455.242,28.098z"/>
		<path style="fill:#63eca9;" d="M72.584,171.813c-4.968,0-9.01-4.041-9.01-9.009V79.067c0-4.967,4.041-9.008,9.01-9.008h374.858  c4.967,0,9.009,4.04,9.009,9.008v83.735c0,4.967-4.041,9.009-9.009,9.009H72.584V171.813z"/>
		<g>
			<rect x="63.574" y="217.114" style="fill:#63eca9;" width="165.314" height="77.768"/>
			<rect x="63.574" y="349.026" style="fill:#63eca9;" width="165.314" height="77.768"/>
			<rect x="282.123" y="217.114" style="fill:#63eca9;" width="165.314" height="77.768"/>
			<rect x="282.123" y="349.026" style="fill:#63eca9;" width="165.314" height="77.768"/>
		</g>
		<path style="opacity:0.1;enable-background:new    ;" d="M109.32,435.553V76.446c0-26.702,21.646-48.347,48.348-48.347H56.758  c-26.703,0-48.348,21.645-48.348,48.347v359.107c0,26.701,21.646,48.347,48.348,48.347h100.91  C130.965,483.9,109.32,462.254,109.32,435.553z"/>
		<path d="M455.241,492.31H335.334c-4.645,0-8.409-3.764-8.409-8.409c0-4.645,3.764-8.409,8.409-8.409h119.907  c22.023,0,39.939-17.916,39.939-39.938V76.446c0-22.022-17.916-39.938-39.939-39.938h-74.545c-4.645,0-8.409-3.764-8.409-8.409  s3.764-8.409,8.409-8.409h74.545c31.296,0,56.758,25.461,56.758,56.756v359.107C512,466.849,486.538,492.31,455.241,492.31z   M301.697,492.31H56.758C25.462,492.31,0,466.849,0,435.553V76.446C0,45.15,25.462,19.689,56.758,19.689H347.06  c4.645,0,8.409,3.764,8.409,8.409s-3.764,8.409-8.409,8.409H56.758c-22.023,0-39.939,17.916-39.939,39.938v359.107  c0,22.022,17.916,39.938,39.939,39.938h244.94c4.645,0,8.409,3.764,8.409,8.409C310.106,488.546,306.342,492.31,301.697,492.31z"/>
		<path d="M447.441,180.222H142.54c-4.645,0-8.409-3.764-8.409-8.409c0-4.645,3.764-8.409,8.409-8.409h304.902  c0.325,0,0.6-0.275,0.6-0.6V79.068c0-0.325-0.275-0.599-0.6-0.599H72.583c-0.325,0-0.6,0.274-0.6,0.599v83.737  c0,0.325,0.275,0.6,0.6,0.6h36.321c4.645,0,8.409,3.764,8.409,8.409c0,4.645-3.764,8.409-8.409,8.409H72.583  c-9.604,0-17.418-7.814-17.418-17.418V79.068c0-9.603,7.814-17.417,17.418-17.417h374.858c9.604,0,17.418,7.814,17.418,17.417  v83.737C464.86,172.409,457.046,180.222,447.441,180.222z"/>
		<path d="M228.893,303.294H63.574c-4.645,0-8.409-3.764-8.409-8.409v-77.772c0-4.645,3.764-8.409,8.409-8.409h165.318  c4.645,0,8.409,3.764,8.409,8.409v77.772C237.302,299.53,233.537,303.294,228.893,303.294z M71.983,286.476h148.5v-60.953h-148.5  V286.476z"/>
		<path d="M228.893,435.211H63.574c-4.645,0-8.409-3.764-8.409-8.409V349.03c0-4.645,3.764-8.409,8.409-8.409h165.318  c4.645,0,8.409,3.764,8.409,8.409v77.772C237.302,431.447,233.537,435.211,228.893,435.211z M71.983,418.393h148.5V357.44h-148.5  V418.393z"/>
		<path d="M447.441,303.294H282.122c-4.645,0-8.409-3.764-8.409-8.409v-77.772c0-4.645,3.764-8.409,8.409-8.409h165.319  c4.645,0,8.409,3.764,8.409,8.409v77.772C455.85,299.53,452.086,303.294,447.441,303.294z M290.531,286.476h148.501v-60.953H290.531  V286.476z"/>
		<path d="M447.441,435.211H282.122c-4.645,0-8.409-3.764-8.409-8.409V349.03c0-4.645,3.764-8.409,8.409-8.409h165.319  c4.645,0,8.409,3.764,8.409,8.409v77.772C455.85,431.447,452.086,435.211,447.441,435.211z M290.531,418.393h148.501V357.44H290.531  V418.393z"/>
	</g>

	<g id="icon-coffee" viewBox="0 0 64 64" style="fill:#ab529b">
		<path d="m1 51.516h46c0 2.199-1.79 3.989-4 3.989h-38c-2.21 0-4-1.79-4-3.989z" fill="#63eca9"/>
		<path d="m55 20.516c4.42 0 8 3.58 8 8v4c0 4.42-3.58 8-8 8h-11.38c.59-.96 1.11-1.96 1.55-3h9.83c2.76 0 5-2.24 5-5v-4c0-2.761-2.24-5-5-5s-5 2.239-5 5v.489c0 .83-.67 1.5-1.5 1.5s-1.5-.67-1.5-1.5h-.01c.01-.159.01-.33.01-.489v-.011c.01-4.42 3.58-7.989 8-7.989z" fill="#ffc9fa"/>
		<path d="m29 33.505v2c0 2.761-2.23 4.99-4.99 5 .181-.22 2.3-2.89-.01-6-2.41-3.25 0-6 0-6 2.76 0 5 2.24 5 5z" fill="#63eca9"/>
		<path d="m24 34.505c2.31 3.11.19 5.78.01 6h-.01c-2.76 0-5-2.239-5-5v-2c0-2.76 2.24-5 5-5 0 0-2.41 2.75 0 6z" fill="#63eca9"/>
		<path d="m19 33.505v2c0 2.761 2.24 5 5 5h.01c2.76-.01 4.99-2.239 4.99-5v-2c0-2.76-2.24-5-5-5s-5 2.24-5 5zm28-13.01v8.01.011c0 .159 0 .33-.01.489-.061 3.021-.7 5.891-1.82 8.511-.439 1.04-.96 2.04-1.55 3-4.04 6.589-11.31 10.989-19.62 10.989-12.7 0-23-10.3-23-23v-8.01z" fill="#ffc9fa"/>
		<path d="m24 52.494c-13.233 0-24-10.767-24-24 0-.553.447-1 1-1s1 .447 1 1c0 12.131 9.869 22 22 22s22-9.869 22-22c0-.553.447-1 1-1s1 .447 1 1c0 13.234-10.767 24-24 24z"/>
		<path d="m46.994 21.485h-45.994c-.553 0-1-.447-1-1s.447-1 1-1h45.994c.553 0 1 .447 1 1s-.447 1-1 1z"/>
		<path d="m55 41.506c-.553 0-1-.447-1-1s.447-1 1-1c3.859 0 7-3.14 7-6.998 0-.553.447-1 1-1s1 .447 1 1c0 4.962-4.037 8.998-9 8.998z"/>
		<path d="m54.994 38.506c-.553 0-1-.447-1-1s.447-1 1-1c2.206 0 4-1.794 4-4 0-.553.447-1 1-1s1 .447 1 1c0 3.308-2.691 6-6 6z"/>
		<path d="m63 29.504c-.553 0-1-.447-1-1 0-3.859-3.141-7-7-7s-7 3.141-7 7c0 .553-.447 1-1 1s-1-.447-1-1c0-4.963 4.037-9 9-9s9 4.037 9 9c0 .553-.447 1-1 1z"/>
		<path d="m59.994 29.502c-.553 0-1-.447-1-1 0-2.206-1.794-4-4-4s-4 1.794-4 4c0 .553-.447 1-1 1s-1-.447-1-1c0-3.309 2.691-6 6-6s6 2.691 6 6c0 .553-.447 1-1 1z"/>
		<path d="m1 29.494c-.553 0-1-.447-1-1v-8.009c0-.553.447-1 1-1s1 .447 1 1v8.009c0 .553-.447 1-1 1z"/>
		<path d="m46.994 29.494c-.553 0-1-.447-1-1v-8.009c0-.553.447-1 1-1s1 .447 1 1v8.009c0 .553-.447 1-1 1z"/>
		<path d="m55 41.506h-11.381c-.553 0-1-.447-1-1s.447-1 1-1h11.381c.553 0 1 .447 1 1s-.447 1-1 1z"/>
		<path d="m55 38.506h-9.832c-.553 0-1-.447-1-1s.447-1 1-1h9.832c.553 0 1 .447 1 1s-.447 1-1 1z"/>
		<path d="m47 52.502h-46c-.553 0-1-.447-1-1s.447-1 1-1h46c.553 0 1 .447 1 1s-.447 1-1 1z"/>
		<path d="m43 56.5h-37.998c-.553 0-1-.447-1-1s.447-1 1-1h37.998c.553 0 1 .447 1 1s-.447 1-1 1z"/>
		<path d="m5 56.5c-2.757 0-5-2.242-5-4.998 0-.553.447-1 1-1s1 .447 1 1c0 1.653 1.346 2.998 3 2.998.553 0 1 .447 1 1s-.447 1-1 1z"/>
		<path d="m43 56.5c-.553 0-1-.447-1-1s.447-1 1-1c1.653 0 2.998-1.345 2.998-2.998 0-.553.447-1 1-1s1 .447 1 1c0 2.756-2.242 4.998-4.998 4.998z"/>
		<path d="m48.498 31.496c-1.377 0-2.498-1.121-2.498-2.498 0-.553.447-1 1-1s1 .447 1 1c0 .274.224.498.498.498.273 0 .496-.224.496-.498 0-.553.447-1 1-1s1 .447 1 1c0 1.377-1.12 2.498-2.496 2.498z"/>
		<path d="m49.994 29.998c-.553 0-1-.447-1-1v-.496c0-.553.447-1 1-1s1 .447 1 1v.496c0 .553-.447 1-1 1z"/>
		<path d="m63 33.508c-.553 0-1-.447-1-1v-4.004c0-.553.447-1 1-1s1 .447 1 1v4.004c0 .553-.447 1-1 1z"/>
		<path d="m59.994 33.506c-.553 0-1-.447-1-1v-4.004c0-.553.447-1 1-1s1 .447 1 1v4.004c0 .553-.447 1-1 1z"/>
		<path d="m23.997 41.5c-3.309 0-6-2.691-6-6 0-.553.447-1 1-1s1 .447 1 1c0 2.206 1.794 4 4 4s4-1.794 4-4c0-.553.447-1 1-1s1 .447 1 1c0 3.309-2.691 6-6 6z"/>
		<path d="m28.997 34.498c-.553 0-1-.447-1-1 0-2.206-1.794-4-4-4s-4 1.794-4 4c0 .553-.447 1-1 1s-1-.447-1-1c0-3.309 2.691-6 6-6s6 2.691 6 6c0 .553-.447 1-1 1z"/>
		<path d="m18.997 36.5c-.553 0-1-.447-1-1v-2.002c0-.553.447-1 1-1s1 .447 1 1v2.002c0 .553-.447 1-1 1z"/>
		<path d="m28.997 36.5c-.553 0-1-.447-1-1v-2.002c0-.553.447-1 1-1s1 .447 1 1v2.002c0 .553-.447 1-1 1z"/>
		<path d="m23.997 41.502c-.233 0-.469-.081-.658-.247-.416-.363-.458-.995-.095-1.411.186-.219 1.798-2.254-.051-4.751-2.282-3.082-.965-6.093.051-7.253.364-.417.997-.459 1.411-.095.414.362.458.991.098 1.407-.193.229-1.798 2.259.048 4.751 2.282 3.082.965 6.095-.051 7.257-.197.226-.475.342-.753.342z"/>
		<path d="m8.003 17.5c-.367 0-.72-.202-.896-.553-.247-.494-.047-1.095.447-1.342 0-.002.232-.146.31-.481.113-.493-.134-1.229-.694-2.069-.923-1.384-1.244-2.636-.955-3.722.314-1.185 1.236-1.676 1.34-1.728.493-.246 1.094-.047 1.342.447.243.486.053 1.076-.425 1.33-.038.024-.257.17-.332.494-.113.493.134 1.229.694 2.069.923 1.384 1.244 2.636.955 3.722-.314 1.185-1.236 1.676-1.34 1.728-.143.071-.296.105-.446.105z"/><path d="m16.003 17.5c-.367 0-.72-.202-.896-.553-.247-.494-.047-1.095.447-1.342 0-.002.232-.146.31-.481.113-.493-.134-1.229-.694-2.069-.923-1.384-1.244-2.636-.955-3.722.314-1.185 1.236-1.676 1.34-1.728.494-.246 1.094-.047 1.342.447.243.486.053 1.076-.425 1.33-.038.023-.257.169-.332.493-.113.493.134 1.229.694 2.069.923 1.384 1.244 2.636.955 3.722-.314 1.185-1.236 1.676-1.34 1.728-.143.072-.296.106-.446.106z"/><path d="m24.003 17.5c-.367 0-.72-.202-.896-.553-.247-.494-.047-1.095.447-1.342 0-.002.232-.146.31-.481.113-.493-.134-1.229-.694-2.069-.923-1.384-1.244-2.636-.955-3.722.314-1.185 1.236-1.676 1.34-1.728.495-.246 1.094-.047 1.342.447.243.486.053 1.076-.425 1.33-.038.023-.257.169-.332.493-.113.493.134 1.229.694 2.069.923 1.384 1.244 2.636.955 3.722-.314 1.185-1.236 1.676-1.34 1.728-.143.072-.296.106-.446.106z"/><path d="m32.003 17.5c-.367 0-.72-.202-.896-.553-.247-.494-.047-1.095.447-1.342 0-.002.232-.146.31-.481.113-.493-.134-1.229-.694-2.069-.923-1.384-1.244-2.636-.955-3.722.314-1.185 1.236-1.676 1.34-1.728.493-.246 1.094-.047 1.342.447.243.486.053 1.076-.425 1.33-.038.023-.257.169-.332.493-.113.493.134 1.229.694 2.069.923 1.384 1.244 2.636.955 3.722-.314 1.185-1.236 1.676-1.34 1.728-.143.072-.296.106-.446.106z"/><path d="m40.003 17.5c-.367 0-.72-.202-.896-.553-.247-.494-.047-1.095.447-1.342 0-.002.232-.146.31-.481.113-.493-.134-1.229-.694-2.069-.923-1.384-1.244-2.636-.955-3.722.314-1.185 1.236-1.676 1.34-1.728.494-.246 1.094-.047 1.342.447.243.486.053 1.076-.425 1.33-.038.023-.257.169-.332.493-.113.493.134 1.229.694 2.069.923 1.384 1.244 2.636.955 3.722-.314 1.185-1.236 1.676-1.34 1.728-.143.072-.296.106-.446.106z"/>
	</g>

	<g id="icon-design" viewBox="0 0 512 512">
		<path d="m341.98 100.82 32.18-32.19a10 10 0 0 1 14.15 0l56.15 56.15a10.007 10.007 0 0 1 0 14.14l-126.7 126.7-70.29-70.29 33.82-33.83z" fill="#ffc9fa"/>
		<path d="m410.82 358.68 15.79 64.1-64.1-15.79z" fill="#cff4df"/>
		<path d="m199.16 243.64-82.07-82.07 48.31-48.31 82.07 82.07 70.29 70.29 93.06 93.06-48.31 48.31-93.06-93.06z" fill="#63eca9"/>
		<path d="m159.92 282.87 39.24-39.23 70.29 70.29-127.44 127.44a10 10 0 0 1 -14.15 0l-56.15-56.15a10.007 10.007 0 0 1 0-14.14z" fill="#ffc9fa"/>
		<path d="m165.4 113.26-48.31 48.31-21.21-21.21 12.55-12.54 28.56-28.57 7.2-7.2z" fill="#ffc9fa"/>
		<path d="m136.99 99.25-28.56 28.57-.01-.01-5.38 5.32-1.59-1.6-10.98-10.99a24.042 24.042 0 1 1 34.14-33.86l10.75 10.94z" fill="#cff4df"/>
		<g fill="#ab529b"><path d="m126.532 371.728a6 6 0 1 0 -8.484 8.485l14.82 14.82a6 6 0 1 0 8.485-8.486z"/><path d="m129.678 240.7a6 6 0 1 0 8.484-8.486l-63.043-63.031 20.663-20.436 94.893 94.893-34.958 34.96c-.013.012-.028.02-.04.032s-.021.027-.032.039l-88.177 88.17a16.006 16.006 0 0 0 0 22.626l56.149 56.149a16 16 0 0 0 22.635 0l123.2-123.2 88.818 88.818a5.939 5.939 0 0 0 .827.676c.084.058.167.113.253.166a5.859 5.859 0 0 0 .792.417c.048.021.093.049.142.068a6.01 6.01 0 0 0 .793.256l64.1 15.789a6 6 0 0 0 7.262-7.26l-15.791-64.1a6.118 6.118 0 0 0 -.257-.8c-.017-.042-.041-.08-.059-.121a5.955 5.955 0 0 0 -.428-.814c-.051-.083-.1-.164-.161-.245a5.915 5.915 0 0 0 -.679-.83l-88.819-88.816 122.455-122.457a16.006 16.006 0 0 0 0-22.626l-56.147-56.149a16 16 0 0 0 -22.636 0l-92.833 92.84c-.011.011-.024.018-.036.029s-.019.025-.03.037l-29.548 29.55-77.827-77.827-21.21-21.21a6 6 0 0 0 -8.485 0l-2.934 2.935-8.129-8.273a30.042 30.042 0 1 0 -42.659 42.312l8.312 8.319-32.146 31.794a6 6 0 0 0 -.024 8.509zm272.657 117.98-39.825 39.825-236.935-236.936 39.825-39.824zm-264.567 78.447a4.1 4.1 0 0 1 -5.665 0l-56.151-56.149a4.009 4.009 0 0 1 0-5.655l83.972-83.965 26.8 26.8a6 6 0 1 0 8.484-8.486l-26.8-26.794 30.751-30.748 61.8 61.805zm236.507-33.418 33.264-33.263 10.872 44.135zm-92.981-233.72 26.8 26.8a6 6 0 1 0 8.484-8.485l-26.8-26.8 52.2-52.2 15.86 15.861a6 6 0 0 0 8.486-8.486l-15.861-15.862 27.937-27.944a4.1 4.1 0 0 1 5.665 0l56.151 56.149a4.009 4.009 0 0 1 0 5.655l-122.456 122.458-61.8-61.8zm-124.379-56.729-39.825 39.825-12.723-12.724 39.823-39.826zm-62.205 3.04a18.042 18.042 0 1 1 25.621-25.41l8.2 8.342-24.278 24.268c-.016.016-.035.026-.052.042l-1.131 1.119z"/></g>
	</g>

	<g id="icon-tech" viewBox="0 0 512 512" style="fill:#ab529b">
		<path d="m504.5 286v-60l-34.649-15c-1.636-7.816-3.696-15.475-6.143-22.959l22.499-30.311-30-51.961-37.546 4.357c-5.289-5.894-10.893-11.498-16.787-16.787l4.357-37.546-51.961-30-30.311 22.499c-7.484-2.447-15.143-4.506-22.959-6.143l-15-34.649h-60l-15 34.649c-7.816 1.636-15.475 3.696-22.959 6.143l-30.31-22.499-51.962 30 4.357 37.546c-5.894 5.289-11.498 10.893-16.787 16.787l-37.546-4.357-30 51.961 22.499 30.311c-2.447 7.484-4.506 15.143-6.143 22.959l-34.649 15v60l34.649 15c1.636 7.816 3.695 15.475 6.143 22.959l-22.499 30.31 30 51.962 37.546-4.357c5.289 5.894 10.893 11.498 16.787 16.787l-4.357 37.546 51.962 30 30.31-22.499c7.484 2.447 15.143 4.506 22.959 6.143l15 34.649h60l15-34.649c7.816-1.636 15.475-3.695 22.959-6.143l30.311 22.499 51.961-30-4.357-37.546c5.894-5.289 11.498-10.893 16.787-16.787l37.546 4.357 30-51.962-22.499-30.31c2.447-7.484 4.506-15.143 6.143-22.959z" fill="#63eca9"/>
		<circle cx="256" cy="256" fill="#cff4df" r="188.5"/>
		<path d="m256 97.5v317c87.537 0 158.5-70.963 158.5-158.5s-70.963-158.5-158.5-158.5z" fill="#ffc9fa"/>
		<path d="m384.5 256c0-87.537-57.531-158.5-128.5-158.5-87.537 0-158.5 70.963-158.5 158.5s70.963 158.5 158.5 158.5c70.969 0 128.5-70.963 128.5-158.5z" fill="#ffc9fa"/>
		<circle cx="256" cy="172.5" fill="#ffc9fa" r="15"/><circle cx="181" cy="256" fill="#ab529b" r="15"/>
		<circle cx="331" cy="256" fill="#ab529b" r="15"/><path d="m507.479 219.117-31.123-13.474c-1.239-5.433-2.691-10.861-4.339-16.213l20.212-27.229c1.782-2.401 1.968-5.631.473-8.22l-30-51.961c-1.496-2.591-4.385-4.044-7.36-3.7l-33.733 3.915c-3.794-4.084-7.759-8.049-11.843-11.843l3.915-33.733c.345-2.972-1.109-5.864-3.7-7.36l-51.961-30c-2.589-1.495-5.819-1.309-8.22.473l-27.23 20.211c-5.353-1.648-10.78-3.101-16.213-4.339l-13.474-31.123c-1.188-2.745-3.893-4.521-6.883-4.521h-60c-2.99 0-5.695 1.776-6.883 4.521l-13.474 31.123c-5.433 1.239-10.861 2.691-16.213 4.339l-27.229-20.212c-2.4-1.783-5.63-1.968-8.22-.473l-51.962 30c-2.591 1.496-4.045 4.388-3.7 7.36l3.915 33.733c-4.083 3.794-8.048 7.759-11.843 11.843l-33.733-3.915c-2.974-.345-5.864 1.109-7.36 3.7l-30 51.961c-1.495 2.589-1.309 5.819.473 8.22l20.212 27.229c-1.648 5.354-3.101 10.781-4.339 16.213l-31.123 13.475c-2.745 1.188-4.521 3.893-4.521 6.883v60c0 2.99 1.776 5.695 4.521 6.883l31.123 13.474c1.239 5.432 2.691 10.86 4.339 16.213l-20.212 27.229c-1.782 2.401-1.968 5.631-.473 8.22l30 51.962c1.496 2.59 4.389 4.047 7.36 3.7l33.733-3.915c3.795 4.083 7.76 8.048 11.843 11.843l-3.915 33.733c-.345 2.972 1.109 5.864 3.7 7.36l51.962 30c2.59 1.496 5.819 1.309 8.22-.473l27.229-20.212c5.354 1.648 10.781 3.101 16.213 4.339l13.474 31.123c1.188 2.745 3.893 4.521 6.883 4.521h60c2.99 0 5.695-1.776 6.883-4.521l13.474-31.123c5.432-1.239 10.86-2.691 16.213-4.339l27.229 20.212c2.4 1.783 5.631 1.969 8.22.473l51.961-30c2.591-1.496 4.045-4.388 3.7-7.36l-3.915-33.733c4.084-3.795 8.049-7.76 11.843-11.843l33.733 3.915c2.975.345 5.864-1.11 7.36-3.7l30-51.962c1.495-2.589 1.309-5.819-.473-8.22l-20.212-27.229c1.648-5.353 3.101-10.78 4.339-16.213l31.123-13.474c2.746-1.188 4.522-3.893 4.522-6.883v-60c0-2.99-1.776-5.695-4.521-6.883zm-10.479 61.957-30.128 13.043c-2.236.968-3.862 2.961-4.361 5.346-1.557 7.432-3.552 14.89-5.931 22.165-.756 2.313-.344 4.848 1.106 6.801l19.563 26.355-25.073 43.428-32.651-3.789c-2.419-.278-4.822.63-6.447 2.441-5.088 5.67-10.544 11.125-16.214 16.214-1.812 1.625-2.721 4.029-2.441 6.447l3.789 32.651-43.428 25.073-26.356-19.563c-1.953-1.45-4.488-1.863-6.801-1.106-7.276 2.379-14.734 4.375-22.165 5.93-2.385.499-4.378 2.125-5.346 4.361l-13.042 30.129h-50.148l-13.043-30.129c-.968-2.236-2.961-3.862-5.346-4.361-7.431-1.556-14.888-3.551-22.165-5.93-2.312-.756-4.848-.344-6.801 1.106l-26.355 19.563-43.428-25.073 3.789-32.651c.28-2.417-.629-4.821-2.44-6.446-5.67-5.089-11.126-10.545-16.215-16.215-1.625-1.812-4.028-2.717-6.446-2.44l-32.651 3.789-25.075-43.428 19.563-26.355c1.45-1.953 1.863-4.489 1.106-6.801-2.379-7.276-4.375-14.734-5.93-22.165-.499-2.385-2.125-4.378-4.361-5.346l-30.128-13.044v-50.148l30.129-13.043c2.236-.968 3.862-2.961 4.361-5.346 1.556-7.431 3.551-14.888 5.93-22.165.756-2.313.344-4.848-1.106-6.801l-19.564-26.356 25.073-43.428 32.651 3.789c2.42.276 4.822-.63 6.447-2.441 5.089-5.67 10.544-11.126 16.214-16.214 1.812-1.625 2.721-4.029 2.441-6.447l-3.789-32.651 43.428-25.073 26.355 19.563c1.953 1.45 4.488 1.864 6.801 1.106 7.275-2.379 14.733-4.374 22.165-5.931 2.385-.5 4.378-2.125 5.346-4.361l13.044-30.127h50.148l13.043 30.128c.968 2.236 2.961 3.862 5.346 4.361 7.432 1.557 14.89 3.552 22.165 5.931 2.313.758 4.848.344 6.801-1.106l26.356-19.563 43.428 25.073-3.789 32.651c-.28 2.418.63 4.821 2.441 6.447 5.671 5.088 11.126 10.543 16.214 16.214 1.625 1.811 4.026 2.72 6.447 2.441l32.651-3.789 25.073 43.428-19.563 26.356c-1.45 1.953-1.863 4.489-1.106 6.801 2.379 7.275 4.374 14.733 5.931 22.165.5 2.385 2.125 4.378 4.361 5.346l30.127 13.042z"/>
		<path d="m256 60c-46.574 0-91.72 16.63-127.122 46.826-3.151 2.688-3.527 7.422-.839 10.573s7.422 3.527 10.573.839c32.69-27.882 74.379-43.238 117.388-43.238 99.804 0 181 81.196 181 181s-81.196 181-181 181-181-81.196-181-181c0-43.009 15.356-84.698 43.238-117.388 2.688-3.151 2.313-7.885-.839-10.573s-7.886-2.313-10.573.839c-30.196 35.402-46.826 80.548-46.826 127.122 0 108.075 87.925 196 196 196s196-87.925 196-196-87.925-196-196-196z"/><path d="m256 422c91.533 0 166-74.467 166-166s-74.467-166-166-166-166 74.467-166 166 74.467 166 166 166zm0-242c-4.136 0-7.5-3.364-7.5-7.5s3.364-7.5 7.5-7.5 7.5 3.364 7.5 7.5-3.364 7.5-7.5 7.5zm0-75c83.262 0 151 67.738 151 151 0 64.809-41.043 120.206-98.5 141.581v-48.474l27.803-27.803c1.407-1.406 2.197-3.314 2.197-5.303v-38.79c8.729-3.096 15-11.432 15-21.21 0-12.407-10.093-22.5-22.5-22.5s-22.5 10.093-22.5 22.5c0 9.778 6.271 18.114 15 21.21v35.684l-27.803 27.803c-1.407 1.406-2.197 3.314-2.197 5.303v56.285c-9.664 2.479-19.698 4.021-30 4.528v-213.104c8.729-3.096 15-11.432 15-21.21 0-12.407-10.093-22.5-22.5-22.5s-22.5 10.093-22.5 22.5c0 9.778 6.271 18.114 15 21.21v213.103c-10.302-.506-20.336-2.049-30-4.528v-56.285c0-1.989-.79-3.897-2.197-5.303l-27.803-27.803v-35.684c8.729-3.096 15-11.432 15-21.21 0-12.407-10.093-22.5-22.5-22.5s-22.5 10.093-22.5 22.5c0 9.778 6.271 18.114 15 21.21v38.79c0 1.989.79 3.897 2.197 5.303l27.803 27.803v48.474c-57.457-21.374-98.5-76.771-98.5-141.58 0-83.262 67.738-151 151-151zm75 158.5c-4.136 0-7.5-3.364-7.5-7.5s3.364-7.5 7.5-7.5 7.5 3.364 7.5 7.5-3.364 7.5-7.5 7.5zm-150 0c-4.136 0-7.5-3.364-7.5-7.5s3.364-7.5 7.5-7.5 7.5 3.364 7.5 7.5-3.364 7.5-7.5 7.5z"/>
	</g>

	<g id="icon-dance" viewBox="-131 0 511 512" style="fill:#ab529b">
		<path d="m170.402344 57.972656v47.613282c-11.011719 11.007812-17.183594 17.179687-28.195313 28.191406h-33.402343c-11.011719-11.011719-17.183594-17.183594-28.195313-28.191406v-47.613282c0-24.792968 20.101563-44.894531 44.894531-44.894531 24.78125 0 44.898438 20.085937 44.898438 44.894531zm0 0" fill="#ffc9fa"/>
		<path d="m100.628906 105.585938v-47.613282c0-21.351562 14.910156-39.210937 34.886719-43.761718-28.238281-6.433594-54.90625 15.054687-54.90625 43.761718v47.613282c11.007813 11.007812 17.183594 17.179687 28.195313 28.191406h20.019531c-11.011719-11.011719-17.183594-17.183594-28.195313-28.191406zm0 0" fill="#ffc9fa"/>
		<path d="m74.296875 504.492188h25.671875l15.011719-15.015626v-32.75h-40.683594zm0 0" fill="#6afaa9"/>
		<path d="m164.421875 141.179688 37.835937-37.839844v-95.832032h24.285157l16.015625 16.015626v95.09375l-66.269532 70.183593zm0 0" fill="#ffc9fa"/>
		<path d="m74.28125 188.800781-66.273438-70.183593v-95.09375l16.015626-16.015626h24.285156v95.832032l37.839844 37.839844zm0 0" fill="#ffc9fa"/>
		<path d="m136.464844 435.972656-14.390625-21.261718 4.019531-20.847657 27.121094-18.359375 22.804687 33.691406zm0 0" fill="#6afaa9"/>
		<path d="m174.042969 354.429688 3.234375 4.78125-24.089844 16.304687 22.804688 33.695313 57.785156-39.113282-10.585938-15.636718zm0 0" fill="#ffc9fa"/>
		<path d="m74.296875 354.429688v101.96875h40.695313l.03125-101.96875zm0 0" fill="#ffc9fa"/>
		<path d="m86.148438 141.179688-11.867188 47.621093v87.972657l-46.960938 77.65625h195.898438l-46.976562-77.65625v-87.972657l-11.820313-47.621093h-13.382813l-11.410156 41.75h-24.648437l-15.453125-41.75z" fill="#6afaa9"/>
		<path d="m151.039062 141.179688v-16.234376l-8.832031 8.832032h-33.402343l-9.277344-9.277344v16.679688l15.453125 41.75h24.648437zm0 0" fill="#ffc9fa"/>
		<path d="m125.773438 14.082031c1.273437 55.078125 29.238281 59.820313 44.628906 58.21875v-13.328125c0-24.703125-19.957032-44.746094-44.628906-44.890625zm0 0" fill="#ffc9fa"/>
		<path d="m125.238281 14.082031c-24.671875.144531-44.628906 20.1875-44.628906 44.890625v13.328125c15.390625 1.601563 43.355469-3.136719 44.628906-58.21875zm0 0" fill="#ffc9fa"/>
		<path d="m106.335938 278.558594v-15.015625h15.015624v15.015625zm25.023437 0v-15.015625h15.015625v15.015625zm0 0" fill="#6afaa9" />
		<path d="m106.335938 278.558594v-15.015625h15.015624v15.015625zm25.023437 0v-15.015625h15.015625v15.015625zm0 0" fill="#6afaa9"/>
		<path d="m74.296875 456.726562h20.019531v47.765626h-20.019531zm0 0" fill="#6afaa9"/>
		<path d="m184.441406 141.179688 37.835938-37.839844v-95.832032h-20.019532v95.832032l-37.835937 37.839844 11.867187 47.621093 15.835938-16.773437zm0 0" fill="#ffc9fa"/>
		<path d="m28.027344 118.617188v-95.09375l16.015625-16.015626h-20.019531l-16.015626 16.015626v95.09375l66.269532 70.183593 4.183594-16.773437zm0 0" fill="#ffc9fa"/>
		<path d="m142.09375 414.710938 4.019531-20.847657 13.394531-9.066406-6.292968-9.292969-27.121094 18.359375-4.019531 20.847657 14.390625 21.261718 13.730468-9.296875zm0 0" fill="#6afaa9"/>
		<path d="m173.207031 375.515625 24.089844-16.304687-3.226563-4.769532-20.027343-.011718 3.234375 4.78125-24.089844 16.304687 22.804688 33.695313 13.730468-9.292969zm0 0" fill="#ffc9fa"/>
		<path d="m74.296875 354.429688h20.019531v101.96875h-20.019531zm0 0" fill="#ffc9fa"/>
		<path d="m167.582031 153.910156-3.160156-12.730468h-13.382813l-11.410156 41.75h20.019532zm0 0" fill="#6afaa9"/>
		<path d="m94.296875 188.800781 9.199219-36.898437-3.96875-10.722656h-13.378906l-11.871094 47.621093v87.972657l-46.957032 77.65625h20.019532l46.957031-77.65625zm0 0" fill="#6afaa9"/>
		<path d="m151.039062 124.945312-8.832031 8.832032h8.832031zm0 0" fill="#ffc9fa"/>
		<path d="m119.546875 133.777344h-10.742187l-9.277344-9.277344v16.679688l15.453125 41.75h20.019531l-15.453125-41.75zm0 0" fill="#ffc9fa"/>
		<path d="m145.984375 19.027344c-6.066406-3.117188-12.929687-4.902344-20.210937-4.945313 1.273437 55.082031 29.238281 59.820313 44.628906 58.21875v-2.949219c-11.664063-5.386718-22.679688-18.941406-24.417969-50.324218zm0 0" fill="#c0694e"/><path d="m100.628906 58.972656c0-17.414062 9.921875-32.5 24.417969-39.945312.085937-1.601563.152344-3.25.191406-4.945313-24.671875.144531-44.628906 20.1875-44.628906 44.890625v13.328125c5.628906.585938 12.945313.320313 20.019531-2.949219zm0 0" fill="#c0694e"/><path d="m229.652344 0h-34.902344v100.230469l-33.4375 33.4375h-2.761719v-5.613281l19.359375-19.359376c0-10.074218 0-39.003906 0-50.722656 0-28.894531-23.507812-52.402344-52.40625-52.402344-28.894531 0-52.402344 23.507813-52.402344 52.402344v50.722656l18.914063 18.914063v6.058594h-2.761719l-33.4375-33.4375v-100.230469h-34.902344l-20.414062 20.414062v101.1875l66.273438 70.1875v82.886719l-15.320313 25.335938 12.847656 7.769531 17.488281-28.917969v-89.136719c7.296876-29.292968 4.90625-19.703124 10.222657-41.042968h2.285156l15.457031 41.753906h35.605469l11.414063-41.753906h1.777343l10.183594 41.039062v38.058594h15.015625v-35.949219l66.316406-70.230469v-101.1875zm-112.371094 22.503906c-1.746094 20.675782-8.660156 40.675782-29.164062 42.414063v-5.945313c0-17.746094 12.503906-32.703125 29.164062-36.46875zm45.613281 36.46875v5.945313c-20.5-1.738281-27.417969-21.726563-29.167969-42.414063 16.664063 3.765625 29.167969 18.722656 29.167969 36.46875zm-74.777343 21c16.5-.925781 29.816406-9.980468 37.386718-27.289062 7.574219 17.3125 20.90625 26.363281 37.390625 27.289062v22.503906l-4.347656 4.34375c-10.128906 10.132813-9.316406 9.320313-19.449219 19.449219h-27.183594l-23.796874-23.792969zm-72.601563-53.339844 11.617187-11.617187h13.667969v91.433594l37.03125 37.035156c-4.667969 18.746094-2.96875 11.925781-7.519531 30.183594l-54.796875-58.035157zm104.695313 148.789063-12.636719-34.136719h35.652343l-9.328124 34.136719zm114.839843-59.789063-54.796875 58.035157-7.523437-30.183594 37.035156-37.03125v-91.4375h13.667969l11.617187 11.617187zm0 0"/><path d="m229.980469 351.101562-46.230469-76.425781v-26.875h-15.015625v31.0625l41.167969 68.054688c-47.980469 0-38.492188.003906-50.015625-.003907l.003906.003907h-119.257813l13.308594-21.996094-12.847656-7.773437-27.089844 44.785156h52.785156v150.066406h36.289063l19.410156-19.414062v-28.679688h.011719l.007812-35.160156 11.949219 17.648437 51.992188-35.191406-.003907-.003906 57.753907-39.09375zm-122.507813 135.265626-10.613281 10.617187h-15.054687v-32.75h25.671874v22.132813zm.039063-124.429688-.023438 86.957031h-25.683593v-86.957031zm15.015625-.003906h37.332031l-17.097656 11.574218.003906.003907-20.246094 13.703125zm7.507812 51.144531 2.839844-14.742187 18.304688-12.390626 14.390624 21.257813-27.097656 18.34375zm47.992188-14.3125-14.390625-21.257813 22.992187-15.5625 32.578125.019532 4.144531 6.125zm0 0"/>
	</g>

  </defs>
</svg>