<svg xmlns="https://www.w3.org/2000/svg" style="display:none;">
  <defs>
  	<g id="icon-mail">
      <g><g><polygon points="339.392,258.624 512,367.744 512,144.896"/></g></g><g><g><polygon points="0,144.896 0,367.744 172.608,258.624"/></g></g><g><g><path d="M480,80H32C16.032,80,3.36,91.904,0.96,107.232L256,275.264l255.04-168.032C508.64,91.904,495.968,80,480,80z"/></g></g><g><g>	<path d="M310.08,277.952l-45.28,29.824c-2.688,1.76-5.728,2.624-8.8,2.624c-3.072,0-6.112-0.864-8.8-2.624l-45.28-29.856		L1.024,404.992C3.488,420.192,16.096,432,32,432h448c15.904,0,28.512-11.808,30.976-27.008L310.08,277.952z"/></g></g>
    </g>
		<g id="icon-linkedin">
      <g><g><rect y="160" width="114.496" height="352"/></g></g>
			<g><g><path d="M426.368,164.128c-1.216-0.384-2.368-0.8-3.648-1.152c-1.536-0.352-3.072-0.64-4.64-0.896		c-6.08-1.216-12.736-2.08-20.544-2.08c-66.752,0-109.088,48.544-123.04,67.296V160H160v352h114.496V320		c0,0,86.528-120.512,123.04-32c0,79.008,0,224,0,224H512V274.464C512,221.28,475.552,176.96,426.368,164.128z"/></g></g>
			<g><g><circle cx="56" cy="56" r="56"/></g></g>
    </g>
		<g id="icon-insta">
      <g><g><path d="M352,0H160C71.648,0,0,71.648,0,160v192c0,88.352,71.648,160,160,160h192c88.352,0,160-71.648,160-160V160		C512,71.648,440.352,0,352,0z M464,352c0,61.76-50.24,112-112,112H160c-61.76,0-112-50.24-112-112V160C48,98.24,98.24,48,160,48		h192c61.76,0,112,50.24,112,112V352z"/></g></g>
			<g><g><path d="M256,128c-70.688,0-128,57.312-128,128s57.312,128,128,128s128-57.312,128-128S326.688,128,256,128z M256,336		c-44.096,0-80-35.904-80-80c0-44.128,35.904-80,80-80s80,35.872,80,80C336,300.096,300.096,336,256,336z"/></g></g>
			<g><g><circle cx="393.6" cy="118.4" r="17.056"/></g></g>
    </g>
    <g id="icon-twitter">
      <g><g><path d="M512,97.248c-19.04,8.352-39.328,13.888-60.48,16.576c21.76-12.992,38.368-33.408,46.176-58.016
			c-20.288,12.096-42.688,20.64-66.56,25.408C411.872,60.704,384.416,48,354.464,48c-58.112,0-104.896,47.168-104.896,104.992
			c0,8.32,0.704,16.32,2.432,23.936c-87.264-4.256-164.48-46.08-216.352-109.792c-9.056,15.712-14.368,33.696-14.368,53.056
			c0,36.352,18.72,68.576,46.624,87.232c-16.864-0.32-33.408-5.216-47.424-12.928c0,0.32,0,0.736,0,1.152
			c0,51.008,36.384,93.376,84.096,103.136c-8.544,2.336-17.856,3.456-27.52,3.456c-6.72,0-13.504-0.384-19.872-1.792
			c13.6,41.568,52.192,72.128,98.08,73.12c-35.712,27.936-81.056,44.768-130.144,44.768c-8.608,0-16.864-0.384-25.12-1.44
			C46.496,446.88,101.6,464,161.024,464c193.152,0,298.752-160,298.752-298.688c0-4.64-0.16-9.12-0.384-13.568
			C480.224,136.96,497.728,118.496,512,97.248z"/></g></g>
    </g>

	<g id="icon-college" viewBox="0 0 398.97 398.97">
		<path d="M225.092,276.586c-7.101,4.355-16.195,6.754-25.607,6.754c-9.412,0-18.506-2.398-25.607-6.754L57.946,205.484
				c0,0-10.464-6.414-10.464,8.116c0,16.5,0,66,0,66c0,0.66,0,3.973,0,5c0,37.402,68.053,77.723,152,77.723s152-40.32,152-77.723
				c0-1.027,0-4.34,0-5c0,0,0-52.502,0-70.003c0-11.663-7.439-5.964-7.439-5.964L225.092,276.586z"></path>
		<path d="M392.289,148.927c8.908-5.463,8.908-14.403,0-19.867L215.681,40.745c-8.908-5.463-23.485-5.463-32.393,0L6.681,129.06
				c-8.908,5.463-8.908,14.403,0,19.867l176.607,108.315c8.908,5.463,23.485,5.463,32.393,0"></path>
		<path d="M384.985,309.475c0-29.906,0-119.625,0-119.625s0.083-5.666-3.279-3.795c-2.697,1.501-9.308,5.186-11.637,7.212
				c-2.689,2.337-2.083,7.583-2.083,7.583s0,81.469,0,108.625c0,1.542-1.325,2.278-1.957,2.65
				c-6.105,3.589-10.21,10.214-10.21,17.809c0,11.414,9.252,20.667,20.667,20.667c11.414,0,20.666-9.253,20.666-20.667
				c0-7.624-4.135-14.27-10.279-17.85C386.262,311.728,384.985,311.016,384.985,309.475z"></path>
	</g>

  </defs>
</svg>